<?xml version="1.0" encoding="UTF-8"?>
<svg xmlns="http://www.w3.org/2000/svg" version="1.1" viewBox="0 0 999.12 1000.08">
  <!-- Generator: Adobe Illustrator 30.3.0, SVG Export Plug-In . SVG Version: 2.1.3 Build 182)  -->
  <defs>
    <style>
      .st0 {
        fill: #92d8f7;
      }

      .st1 {
        fill: #fff;
      }

      .st2 {
        fill: #4058a7;
      }

      .st3 {
        fill: #86af58;
      }

      .st4 {
        fill: #6dacde;
      }

      .st5 {
        fill: #219546;
      }
    </style>
  </defs>
  <g id="Layer_4">
    <circle class="st2" cx="296.27" cy="449.23" r="289.35"/>
  </g>
  <g id="Layer_5">
    <circle class="st4" cx="499.01" cy="301.53" r="289.35"/>
  </g>
  <g id="Layer_2">
    <circle class="st0" cx="701.76" cy="447.88" r="289.35"/>
  </g>
  <g id="Layer_7">
    <circle class="st5" cx="625.23" cy="688.22" r="289.35"/>
  </g>
  <g id="Layer_8">
    <path class="st3" d="M662.15,686.88c0,159.8-129.55,289.35-289.35,289.35S83.45,846.68,83.45,686.88c0-55.27,20.33-126.19,66.1-183.08,24.2-30.09,176.45,149.31,189.01,140.79,67.7-45.9,98.45-209.46,123.53-209.46,23.34,0-14.99-34.93,37.79-8.27,91.19,46.06,162.26,146.92,162.26,260.02Z"/>
  </g>
  <g id="Layer_9">
    <path class="st2" d="M585.62,447.88c0,159.8-129.55,289.35-289.35,289.35-119.47,0-198.69-78.78-209.46-89.29-56.39-55.05-116.95-186.73-52.36-322.24,68.48-143.67,210.49-162.62,210.49-162.62h0s-121.87,208.27,88.93,377.45c91.61,73.52,251.75-274.72,251.75-92.64Z"/>
  </g>
  <g id="Layer_3">
    <path class="st1" d="M644.55,590.71c-20.18,15.9-45.63,33.43-76.53,49.68-36.42,19.15-70.26,31.19-98.02,38.94-22.29-15.25-48.54-35.86-75.19-63.11-26.64-27.24-46.66-53.92-61.41-76.53,8.56-28.49,21.45-62.71,41.27-99.36,15.87-29.33,32.75-53.89,48.34-73.85,27.84-.09,61.05,1.81,98.02,8.06,36.42,6.15,67.99,15.09,93.99,24.17,8.16,25.24,15.95,54.96,21.48,88.62,6.39,38.84,8.27,73.84,8.06,103.39Z"/>
  </g>
</svg>